<svg width="15" height="15" viewBox="0 0 19 20" fill="none" xmlns="http://www.w3.org/2000/svg">
<path d="M16.7655 0C17.2967 0 17.8061 0.225711 18.1817 0.62748C18.5573 1.02925 18.7683 1.57416 18.7683 2.14235V17.1388C18.7683 17.707 18.5573 18.2519 18.1817 18.6537C17.8061 19.0554 17.2967 19.2811 16.7655 19.2811H2.74639C2.21523 19.2811 1.70583 19.0554 1.33024 18.6537C0.954654 18.2519 0.743652 17.707 0.743652 17.1388V2.14235C0.743652 1.57416 0.954654 1.02925 1.33024 0.62748C1.70583 0.225711 2.21523 0 2.74639 0H16.7655ZM16.2648 16.6032V10.926C16.2648 9.99984 15.9209 9.11163 15.3087 8.45674C14.6965 7.80186 13.8662 7.43395 13.0004 7.43395C12.1492 7.43395 11.1579 7.99096 10.6772 8.82648V7.63748H7.8834V16.6032H10.6772V11.3223C10.6772 10.4975 11.2981 9.82267 12.0691 9.82267C12.4409 9.82267 12.7975 9.98067 13.0604 10.2619C13.3233 10.5431 13.471 10.9246 13.471 11.3223V16.6032H16.2648ZM4.62896 5.95573C5.07513 5.95573 5.50303 5.76613 5.81852 5.42865C6.13401 5.09116 6.31125 4.63343 6.31125 4.15616C6.31125 3.15997 5.56023 2.34587 4.62896 2.34587C4.18013 2.34587 3.74968 2.5366 3.43231 2.87609C3.11494 3.21559 2.93665 3.67604 2.93665 4.15616C2.93665 5.15235 3.69769 5.95573 4.62896 5.95573ZM6.02086 16.6032V7.63748H3.24707V16.6032H6.02086Z" fill="#58B310"/>
</svg>
