<svg width="25" height="24" viewBox="0 0 25 24" fill="none" xmlns="http://www.w3.org/2000/svg">
<path d="M24.9922 13.9946C24.9945 13.4805 24.9137 11.541 24.852 10.9863C24.141 4.62031 18.9742 0 12.5672 0C5.89375 0 0.486743 5.14219 0.119922 11.9605C0.112109 12.1094 0.0574219 13.1652 0.0535156 13.7937L0.0515625 14.1434C0.0195312 14.2879 0 14.4371 0 14.591V21.3941C0 22.5387 0.930859 23.4695 2.07539 23.4695H4.18203C5.32656 23.4695 6.25779 22.5387 6.25779 21.3941V14.5914C6.25779 13.4469 5.32615 12.516 4.18201 12.516H2.07459C1.93366 12.516 1.79311 12.5303 1.65505 12.5586C1.66677 12.3051 1.67732 12.1047 1.68005 12.0446C2.00195 6.06838 6.73709 1.56252 12.5672 1.56252C18.1648 1.56252 22.6777 5.59924 23.2988 11.1602C23.3254 11.3922 23.359 11.9821 23.3859 12.5742C23.2336 12.5391 23.0781 12.516 22.9164 12.516H20.8344C19.6898 12.516 18.759 13.4469 18.759 14.5914V21.3703C18.759 22.5152 19.6898 23.4457 20.8344 23.4457H22.9164C24.0609 23.4457 24.9922 22.5148 24.9922 21.3703V14.5914C24.9922 14.4641 24.9765 14.3402 24.9539 14.2199C24.9765 14.148 24.9914 14.073 24.9922 13.9945V13.9946ZM2.07461 14.0785H4.18125C4.46445 14.0785 4.69451 14.3082 4.69451 14.5914V21.3945C4.69451 21.6781 4.46404 21.9074 4.18123 21.9074H2.07459C1.79138 21.9074 1.56169 21.6777 1.56169 21.3945V14.5914C1.56248 14.3082 1.79216 14.0785 2.07461 14.0785ZM23.4297 21.3699C23.4297 21.6531 23.1992 21.8828 22.9164 21.8828H20.8344C20.5512 21.8828 20.3215 21.6531 20.3215 21.3699V14.5914C20.3215 14.3082 20.5512 14.0785 20.8344 14.0785H22.9164C23.1996 14.0785 23.4297 14.3082 23.4297 14.5914V21.3699Z" fill="#58B310"/>
</svg>
