<svg width="13" height="16" viewBox="0 0 13 16" fill="none" xmlns="http://www.w3.org/2000/svg">
<path d="M6.5 7.30272C5.88432 7.30272 5.29385 7.10025 4.8585 6.73985C4.42315 6.37944 4.17857 5.89064 4.17857 5.38095C4.17857 4.87127 4.42315 4.38246 4.8585 4.02206C5.29385 3.66165 5.88432 3.45918 6.5 3.45918C7.11568 3.45918 7.70615 3.66165 8.1415 4.02206C8.57685 4.38246 8.82143 4.87127 8.82143 5.38095C8.82143 5.63332 8.76138 5.88322 8.64472 6.11638C8.52806 6.34954 8.35706 6.56139 8.1415 6.73985C7.92593 6.9183 7.67002 7.05986 7.38837 7.15643C7.10672 7.25301 6.80485 7.30272 6.5 7.30272ZM6.5 0C4.77609 0 3.12279 0.56692 1.90381 1.57604C0.684819 2.58517 0 3.95383 0 5.38095C0 9.41666 6.5 15.3741 6.5 15.3741C6.5 15.3741 13 9.41666 13 5.38095C13 3.95383 12.3152 2.58517 11.0962 1.57604C9.87721 0.56692 8.22391 0 6.5 0Z" fill="white"/>
</svg>
