<svg width="21" height="17" viewBox="0 0 21 17" fill="none" xmlns="http://www.w3.org/2000/svg">
<path d="M20.92 1.9052C20.15 2.2386 19.32 2.4577 18.46 2.56249C19.34 2.05761 20.02 1.25743 20.34 0.295305C19.51 0.771604 18.59 1.10501 17.62 1.29553C16.83 0.476299 15.72 0 14.46 0C12.11 0 10.19 1.82899 10.19 4.08664C10.19 4.41053 10.23 4.72488 10.3 5.02019C6.74 4.84872 3.57 3.21978 1.46 0.752552C1.09 1.35269 0.88 2.05761 0.88 2.80064C0.88 4.22001 1.63 5.47744 2.79 6.19188C2.08 6.19188 1.42 6.00137 0.84 5.71559V5.74416C0.84 7.72557 2.32 9.38309 4.28 9.7546C3.65073 9.91864 2.9901 9.94147 2.35 9.82128C2.62161 10.6334 3.15354 11.3439 3.87102 11.8531C4.5885 12.3623 5.45545 12.6445 6.35 12.66C4.83363 13.8036 2.954 14.4217 1.02 14.4128C0.68 14.4128 0.34 14.3938 0 14.3556C1.9 15.5178 4.16 16.1942 6.58 16.1942C14.46 16.1942 18.79 9.96417 18.79 4.56294C18.79 4.38195 18.79 4.21048 18.78 4.02949C19.62 3.45793 20.34 2.73396 20.92 1.9052Z" fill="white"/>
</svg>
