<svg width="12" height="12" viewBox="0 0 12 12" fill="none" xmlns="http://www.w3.org/2000/svg">
<path d="M9.5368 9.48422C8.88249 9.48422 8.35786 10.0089 8.35786 10.6632C8.35786 10.9758 8.48207 11.2757 8.70316 11.4968C8.92426 11.7179 9.22413 11.8421 9.5368 11.8421C9.84948 11.8421 10.1493 11.7179 10.3704 11.4968C10.5915 11.2757 10.7158 10.9758 10.7158 10.6632C10.7158 10.3505 10.5915 10.0506 10.3704 9.82953C10.1493 9.60843 9.84948 9.48422 9.5368 9.48422ZM0.105225 0.0526428V1.23159H1.28417L3.40628 5.70569L2.60459 7.14991C2.51617 7.31496 2.46312 7.50948 2.46312 7.7158C2.46312 8.02848 2.58733 8.32835 2.80842 8.54944C3.02952 8.77054 3.32939 8.89475 3.64207 8.89475H10.7158V7.7158H3.88965C3.85056 7.7158 3.81308 7.70027 3.78544 7.67264C3.7578 7.645 3.74228 7.60752 3.74228 7.56843C3.74228 7.53896 3.74817 7.51538 3.75996 7.49769L4.29049 6.53685H8.68207C9.12417 6.53685 9.51322 6.28927 9.71364 5.92969L11.824 2.1158C11.8652 2.02148 11.8947 1.92127 11.8947 1.82106C11.8947 1.66473 11.8326 1.51479 11.722 1.40424C11.6115 1.2937 11.4616 1.23159 11.3052 1.23159H2.58691L2.0328 0.0526428M3.64207 9.48422C2.98775 9.48422 2.46312 10.0089 2.46312 10.6632C2.46312 10.9758 2.58733 11.2757 2.80842 11.4968C3.02952 11.7179 3.32939 11.8421 3.64207 11.8421C3.95474 11.8421 4.25461 11.7179 4.47571 11.4968C4.6968 11.2757 4.82101 10.9758 4.82101 10.6632C4.82101 10.3505 4.6968 10.0506 4.47571 9.82953C4.25461 9.60843 3.95474 9.48422 3.64207 9.48422Z" fill="white"/>
</svg>
