<svg width="18" height="18" viewBox="0 0 18 18" fill="none" xmlns="http://www.w3.org/2000/svg">
<path d="M14.929 7.2276C14.6232 6.40601 14.1036 5.67146 13.4185 5.09249C12.7334 4.51351 11.9053 4.10899 11.0114 3.91666C10.1174 3.72433 9.18679 3.75046 8.30633 3.99262C7.42588 4.23478 6.62429 4.68508 5.97635 5.30148L3.17903 7.80085M14.9685 10.0939L12.1712 12.5932C11.5233 13.2096 10.7217 13.6599 9.8412 13.9021C8.96075 14.1442 8.03013 14.1704 7.13618 13.978C6.24223 13.7857 5.41409 13.3812 4.72903 12.8022C4.04396 12.2232 3.52431 11.4887 3.21855 10.6671" stroke="white" stroke-linecap="round" stroke-linejoin="round"/>
<path d="M3.03174 4.23157V7.91578H6.71595" stroke="white" stroke-linecap="round" stroke-linejoin="round"/>
<path d="M15.0422 13.6631L15.0422 9.97894L11.358 9.97894" stroke="white" stroke-linecap="round" stroke-linejoin="round"/>
</svg>
