<svg width="20" height="20" viewBox="0 0 25 25" fill="none" xmlns="http://www.w3.org/2000/svg">
<path d="M9.5132 3.97046V4.27588H14.5869V3.97046C14.5869 3.32244 14.3196 2.70096 13.8439 2.24274C13.3681 1.78452 12.7229 1.5271 12.0501 1.5271C11.3772 1.5271 10.732 1.78452 10.2562 2.24274C9.78047 2.70096 9.5132 3.32244 9.5132 3.97046ZM7.92767 4.27588V3.97046C7.92767 2.91743 8.36199 1.90752 9.13509 1.16292C9.90818 0.418315 10.9567 0 12.0501 0C13.1434 0 14.1919 0.418315 14.965 1.16292C15.7381 1.90752 16.1724 2.91743 16.1724 3.97046V4.27588H23.3073C23.5176 4.27588 23.7192 4.35632 23.8679 4.49952C24.0166 4.64271 24.1001 4.83692 24.1001 5.03943C24.1001 5.24193 24.0166 5.43614 23.8679 5.57934C23.7192 5.72253 23.5176 5.80298 23.3073 5.80298H21.4573L20.1889 20.3752C20.0925 21.4818 19.568 22.5131 18.7193 23.2648C17.8706 24.0165 16.7597 24.4336 15.6067 24.4336H8.49338C7.34051 24.4335 6.22973 24.0163 5.38117 23.2646C4.53261 22.5129 4.00819 21.4817 3.91183 20.3752L2.6434 5.80298H0.792767C0.582512 5.80298 0.380869 5.72253 0.232196 5.57934C0.0835234 5.43614 0 5.24193 0 5.03943C0 4.83692 0.0835234 4.64271 0.232196 4.49952C0.380869 4.35632 0.582512 4.27588 0.792767 4.27588H7.92767ZM5.49165 20.2475C5.55478 20.9725 5.89837 21.6481 6.45433 22.1406C7.01029 22.6331 7.73804 22.9064 8.49338 22.9065H15.6067C16.3622 22.9066 17.0901 22.6333 17.6462 22.1408C18.2023 21.6483 18.5459 20.9726 18.6091 20.2475L19.8661 5.80298H4.23401L5.49165 20.2475ZM10.4645 9.92614C10.4645 9.82587 10.444 9.72658 10.4042 9.63394C10.3643 9.54131 10.3059 9.45713 10.2323 9.38623C10.1587 9.31533 10.0713 9.25909 9.97513 9.22071C9.87895 9.18234 9.77586 9.16259 9.67175 9.16259C9.56765 9.16259 9.46456 9.18234 9.36837 9.22071C9.27219 9.25909 9.1848 9.31533 9.11118 9.38623C9.03757 9.45713 8.97917 9.54131 8.93933 9.63394C8.89949 9.72658 8.87899 9.82587 8.87899 9.92614V18.7833C8.87899 18.8836 8.89949 18.9829 8.93933 19.0755C8.97917 19.1681 9.03757 19.2523 9.11118 19.3232C9.1848 19.3941 9.27219 19.4504 9.36837 19.4887C9.46456 19.5271 9.56765 19.5469 9.67175 19.5469C9.77586 19.5469 9.87895 19.5271 9.97513 19.4887C10.0713 19.4504 10.1587 19.3941 10.2323 19.3232C10.3059 19.2523 10.3643 19.1681 10.4042 19.0755C10.444 18.9829 10.4645 18.8836 10.4645 18.7833V9.92614ZM14.4284 9.16259C14.866 9.16259 15.2211 9.50466 15.2211 9.92614V18.7833C15.2211 18.9858 15.1376 19.18 14.9889 19.3232C14.8403 19.4664 14.6386 19.5469 14.4284 19.5469C14.2181 19.5469 14.0165 19.4664 13.8678 19.3232C13.7191 19.18 13.6356 18.9858 13.6356 18.7833V9.92614C13.6356 9.50466 13.9907 9.16259 14.4284 9.16259Z" fill="#848484"/>
</svg>
