<svg width="15" height="15" viewBox="0 0 21 22" fill="none" xmlns="http://www.w3.org/2000/svg">
<path d="M5.85236 0H14.2638C17.4682 0 20.0718 2.78505 20.0718 6.21281V15.2107C20.0718 16.8584 19.4599 18.4387 18.3707 19.6038C17.2815 20.7689 15.8042 21.4235 14.2638 21.4235H5.85236C2.64799 21.4235 0.0444336 18.6384 0.0444336 15.2107V6.21281C0.0444336 4.56507 0.656339 2.98482 1.74554 1.81969C2.83473 0.654562 4.312 0 5.85236 0ZM5.65209 2.14235C4.696 2.14235 3.77908 2.54863 3.10302 3.27181C2.42697 3.995 2.04717 4.97584 2.04717 5.99858V15.4249C2.04717 17.5566 3.65937 19.2811 5.65209 19.2811H14.4641C15.4202 19.2811 16.3371 18.8749 17.0132 18.1517C17.6892 17.4285 18.069 16.4476 18.069 15.4249V5.99858C18.069 3.86694 16.4568 2.14235 14.4641 2.14235H5.65209ZM15.3153 3.74911C15.6473 3.74911 15.9656 3.89018 16.2004 4.14129C16.4351 4.39239 16.567 4.73296 16.567 5.08808C16.567 5.4432 16.4351 5.78377 16.2004 6.03487C15.9656 6.28598 15.6473 6.42705 15.3153 6.42705C14.9833 6.42705 14.6649 6.28598 14.4302 6.03487C14.1954 5.78377 14.0636 5.4432 14.0636 5.08808C14.0636 4.73296 14.1954 4.39239 14.4302 4.14129C14.6649 3.89018 14.9833 3.74911 15.3153 3.74911ZM10.0581 5.35587C11.386 5.35587 12.6595 5.92015 13.5985 6.92457C14.5374 7.92899 15.0649 9.29128 15.0649 10.7117C15.0649 12.1322 14.5374 13.4945 13.5985 14.4989C12.6595 15.5033 11.386 16.0676 10.0581 16.0676C8.73021 16.0676 7.4567 15.5033 6.51774 14.4989C5.57877 13.4945 5.05127 12.1322 5.05127 10.7117C5.05127 9.29128 5.57877 7.92899 6.51774 6.92457C7.4567 5.92015 8.73021 5.35587 10.0581 5.35587ZM10.0581 7.49822C9.26137 7.49822 8.49726 7.83679 7.93388 8.43944C7.37051 9.04209 7.054 9.85947 7.054 10.7117C7.054 11.564 7.37051 12.3814 7.93388 12.9841C8.49726 13.5867 9.26137 13.9253 10.0581 13.9253C10.8548 13.9253 11.6189 13.5867 12.1823 12.9841C12.7457 12.3814 13.0622 11.564 13.0622 10.7117C13.0622 9.85947 12.7457 9.04209 12.1823 8.43944C11.6189 7.83679 10.8548 7.49822 10.0581 7.49822Z" fill="#58B310"/>
</svg>
