<svg width="18" height="18" viewBox="0 0 18 18" fill="none" xmlns="http://www.w3.org/2000/svg">
<path d="M14.6089 4.09489C14.2848 3.76446 13.9 3.50233 13.4765 3.3235C13.053 3.14466 12.599 3.05261 12.1406 3.05261C11.6822 3.05261 11.2283 3.14466 10.8048 3.3235C10.3813 3.50233 9.99647 3.76446 9.67239 4.09489L8.99982 4.78033L8.32724 4.09489C7.67263 3.42775 6.78478 3.05296 5.85901 3.05296C4.93325 3.05296 4.0454 3.42775 3.39078 4.09489C2.73617 4.76202 2.36841 5.66685 2.36841 6.61033C2.36841 7.5538 2.73617 8.45863 3.39078 9.12577L4.06336 9.81121L8.99982 14.8421L13.9363 9.81121L14.6089 9.12577C14.9331 8.79549 15.1903 8.40335 15.3658 7.97174C15.5412 7.54013 15.6316 7.07752 15.6316 6.61033C15.6316 6.14314 15.5412 5.68052 15.3658 5.24891C15.1903 4.81731 14.9331 4.42516 14.6089 4.09489V4.09489Z" stroke="white" stroke-linecap="round" stroke-linejoin="round"/>
</svg>
