<svg width="18" height="18" viewBox="0 0 18 18" fill="none" xmlns="http://www.w3.org/2000/svg">
<path d="M16 0C16.5304 0 17.0391 0.200725 17.4142 0.558019C17.7893 0.915312 18 1.39991 18 1.9052V15.2416C18 15.7469 17.7893 16.2314 17.4142 16.5887C17.0391 16.946 16.5304 17.1468 16 17.1468H2C1.46957 17.1468 0.960859 16.946 0.585786 16.5887C0.210714 16.2314 0 15.7469 0 15.2416V1.9052C0 1.39991 0.210714 0.915312 0.585786 0.558019C0.960859 0.200725 1.46957 0 2 0H16ZM15.5 14.7653V9.7165C15.5 8.89287 15.1565 8.10299 14.5452 7.5206C13.9338 6.93821 13.1046 6.61103 12.24 6.61103C11.39 6.61103 10.4 7.10638 9.92 7.8494V6.79202H7.13V14.7653H9.92V10.069C9.92 9.33546 10.54 8.73532 11.31 8.73532C11.6813 8.73532 12.0374 8.87583 12.2999 9.12593C12.5625 9.37604 12.71 9.71525 12.71 10.069V14.7653H15.5ZM3.88 5.29644C4.32556 5.29644 4.75288 5.12783 5.06794 4.82771C5.383 4.52758 5.56 4.12052 5.56 3.69608C5.56 2.81016 4.81 2.08619 3.88 2.08619C3.43178 2.08619 3.00193 2.2558 2.68499 2.55771C2.36805 2.85963 2.19 3.26911 2.19 3.69608C2.19 4.58199 2.95 5.29644 3.88 5.29644ZM5.27 14.7653V6.79202H2.5V14.7653H5.27Z" fill="white"/>
</svg>
