<svg width="18" height="22" viewBox="0 0 18 22" fill="none" xmlns="http://www.w3.org/2000/svg">
<path d="M8.81811 16.7519C9.36211 16.7519 9.88382 16.5358 10.2685 16.1511C10.6531 15.7665 10.8692 15.2448 10.8692 14.7008C10.8692 14.1568 10.6531 13.6351 10.2685 13.2504C9.88382 12.8657 9.36211 12.6496 8.81811 12.6496C8.27412 12.6496 7.7524 12.8657 7.36774 13.2504C6.98308 13.6351 6.76698 14.1568 6.76698 14.7008C6.76698 15.2448 6.98308 15.7665 7.36774 16.1511C7.7524 16.5358 8.27412 16.7519 8.81811 16.7519ZM14.9715 7.5218C15.5155 7.5218 16.0372 7.7379 16.4219 8.12256C16.8065 8.50723 17.0226 9.02894 17.0226 9.57293V19.8286C17.0226 20.3726 16.8065 20.8943 16.4219 21.279C16.0372 21.6636 15.5155 21.8797 14.9715 21.8797H2.66472C2.12072 21.8797 1.59901 21.6636 1.21435 21.279C0.829687 20.8943 0.613586 20.3726 0.613586 19.8286V9.57293C0.613586 9.02894 0.829687 8.50723 1.21435 8.12256C1.59901 7.7379 2.12072 7.5218 2.66472 7.5218H3.69028V5.47067C3.69028 4.11069 4.23054 2.8064 5.19219 1.84475C6.15384 0.883094 7.45813 0.342842 8.81811 0.342842C9.49151 0.342842 10.1583 0.475477 10.7804 0.733175C11.4026 0.990872 11.9679 1.36859 12.444 1.84475C12.9202 2.32091 13.2979 2.8862 13.5556 3.50834C13.8133 4.13047 13.9459 4.79727 13.9459 5.47067V7.5218H14.9715ZM8.81811 2.39397C8.00212 2.39397 7.21955 2.71812 6.64256 3.29512C6.06557 3.87211 5.74141 4.65468 5.74141 5.47067V7.5218H11.8948V5.47067C11.8948 4.65468 11.5707 3.87211 10.9937 3.29512C10.4167 2.71812 9.6341 2.39397 8.81811 2.39397Z" fill="#333333"/>
</svg>
