<svg width="12" height="11" viewBox="0 0 12 11" fill="none" xmlns="http://www.w3.org/2000/svg">
<path d="M2.2625 4.63796C3.1625 6.32287 4.6125 7.69818 6.38125 8.56147L7.75625 7.25165C7.925 7.0909 8.175 7.03731 8.39375 7.10876C9.09375 7.32905 9.85 7.44812 10.625 7.44812C10.9688 7.44812 11.25 7.71604 11.25 8.0435V10.1214C11.25 10.4488 10.9688 10.7167 10.625 10.7167C4.75625 10.7167 0 6.18593 0 0.595374C0 0.267918 0.28125 0 0.625 0H2.8125C3.15625 0 3.4375 0.267918 3.4375 0.595374C3.4375 1.33959 3.5625 2.05404 3.79375 2.72086C3.8625 2.92924 3.8125 3.16143 3.6375 3.32814L2.2625 4.63796Z" fill="white"/>
</svg>