<svg width="22" height="12" viewBox="0 0 22 12" fill="none" xmlns="http://www.w3.org/2000/svg">
<path fill-rule="evenodd" clip-rule="evenodd" d="M0.196716 0.75C0.196716 0.551088 0.277029 0.360322 0.419987 0.21967C0.562945 0.0790175 0.756838 0 0.959011 0H9.09016C9.29233 0 9.48622 0.0790175 9.62918 0.21967C9.77214 0.360322 9.85245 0.551088 9.85245 0.75C9.85245 0.948912 9.77214 1.13968 9.62918 1.28033C9.48622 1.42098 9.29233 1.5 9.09016 1.5H0.959011C0.756838 1.5 0.562945 1.42098 0.419987 1.28033C0.277029 1.13968 0.196716 0.948912 0.196716 0.75ZM0.196716 5.75C0.196716 5.55109 0.277029 5.36032 0.419987 5.21967C0.562945 5.07902 0.756838 5 0.959011 5H7.05737C7.25955 5 7.45344 5.07902 7.5964 5.21967C7.73935 5.36032 7.81967 5.55109 7.81967 5.75C7.81967 5.94891 7.73935 6.13968 7.5964 6.28033C7.45344 6.42098 7.25955 6.5 7.05737 6.5H0.959011C0.756838 6.5 0.562945 6.42098 0.419987 6.28033C0.277029 6.13968 0.196716 5.94891 0.196716 5.75ZM0.196716 10.75C0.196716 10.5511 0.277029 10.3603 0.419987 10.2197C0.562945 10.079 0.756838 10 0.959011 10H9.09016C9.29233 10 9.48622 10.079 9.62918 10.2197C9.77214 10.3603 9.85245 10.5511 9.85245 10.75C9.85245 10.9489 9.77214 11.1397 9.62918 11.2803C9.48622 11.421 9.29233 11.5 9.09016 11.5H0.959011C0.756838 11.5 0.562945 11.421 0.419987 11.2803C0.277029 11.1397 0.196716 10.9489 0.196716 10.75ZM16.2049 10.75C17.5527 10.75 18.8454 10.2232 19.7984 9.28553C20.7515 8.34785 21.2869 7.07608 21.2869 5.75C21.2869 4.42392 20.7515 3.15215 19.7984 2.21447C18.8454 1.27678 17.5527 0.75 16.2049 0.75C14.8571 0.75 13.5645 1.27678 12.6114 2.21447C11.6584 3.15215 11.1229 4.42392 11.1229 5.75C11.1229 7.07608 11.6584 8.34785 12.6114 9.28553C13.5645 10.2232 14.8571 10.75 16.2049 10.75ZM16.9672 3.75C16.9672 3.55109 16.8869 3.36032 16.7439 3.21967C16.601 3.07902 16.4071 3 16.2049 3C16.0027 3 15.8088 3.07902 15.6659 3.21967C15.5229 3.36032 15.4426 3.55109 15.4426 3.75V5.596C15.4426 5.776 15.5087 5.951 15.6286 6.087L16.645 7.241C16.7105 7.31546 16.7903 7.37649 16.8799 7.42061C16.9694 7.46472 17.0668 7.49106 17.1667 7.49812C17.2665 7.50518 17.3668 7.49281 17.4618 7.46174C17.5568 7.43066 17.6447 7.38148 17.7204 7.317C17.796 7.25252 17.8581 7.17401 17.9029 7.08594C17.9477 6.99788 17.9745 6.90198 17.9817 6.80374C17.9889 6.7055 17.9763 6.60682 17.9447 6.51336C17.9131 6.41989 17.8631 6.33346 17.7976 6.259L16.9672 5.316V3.75Z" fill="#848484"/>
</svg>
