<svg width="19" height="10" viewBox="0 0 19 10" fill="none" xmlns="http://www.w3.org/2000/svg">
<path d="M4.26229 2V0H18.4918V2H4.26229ZM4.26229 6V4H18.4918V6H4.26229ZM4.26229 10V8H18.4918V10H4.26229ZM1.21311 2C0.925132 2 0.683908 1.904 0.489438 1.712C0.294968 1.52 0.197394 1.28267 0.196716 1C0.196716 0.716667 0.29429 0.479333 0.489438 0.288C0.684585 0.0966668 0.925809 0.000666667 1.21311 0C1.50109 0 1.74265 0.0960001 1.9378 0.288C2.13295 0.48 2.23018 0.717333 2.2295 1C2.2295 1.28333 2.13193 1.521 1.93678 1.713C1.74163 1.905 1.50041 2.00067 1.21311 2ZM1.21311 6C0.925132 6 0.683908 5.904 0.489438 5.712C0.294968 5.52 0.197394 5.28267 0.196716 5C0.196716 4.71667 0.29429 4.47933 0.489438 4.288C0.684585 4.09667 0.925809 4.00067 1.21311 4C1.50109 4 1.74265 4.096 1.9378 4.288C2.13295 4.48 2.23018 4.71733 2.2295 5C2.2295 5.28333 2.13193 5.521 1.93678 5.713C1.74163 5.905 1.50041 6.00067 1.21311 6ZM1.21311 10C0.925132 10 0.683908 9.904 0.489438 9.712C0.294968 9.52 0.197394 9.28267 0.196716 9C0.196716 8.71667 0.29429 8.47933 0.489438 8.288C0.684585 8.09667 0.925809 8.00067 1.21311 8C1.50109 8 1.74265 8.096 1.9378 8.288C2.13295 8.48 2.23018 8.71733 2.2295 9C2.2295 9.28333 2.13193 9.521 1.93678 9.713C1.74163 9.905 1.50041 10.0007 1.21311 10Z" fill="#848484"/>
</svg>
