<svg width="20" height="20" viewBox="0 0 20 20" fill="none" xmlns="http://www.w3.org/2000/svg">
<path d="M5.8 0H14.2C17.4 0 20 2.47675 20 5.52507V13.5269C20 14.9922 19.3889 16.3975 18.3012 17.4337C17.2135 18.4698 15.7383 19.052 14.2 19.052H5.8C2.6 19.052 0 16.5752 0 13.5269V5.52507C0 4.05973 0.61107 2.65441 1.69878 1.61825C2.78649 0.582104 4.26174 0 5.8 0ZM5.6 1.9052C4.64522 1.9052 3.72955 2.2665 3.05442 2.90963C2.37928 3.55276 2 4.42503 2 5.33455V13.7174C2 15.6131 3.61 17.1468 5.6 17.1468H14.4C15.3548 17.1468 16.2705 16.7855 16.9456 16.1423C17.6207 15.4992 18 14.6269 18 13.7174V5.33455C18 3.43888 16.39 1.9052 14.4 1.9052H5.6ZM15.25 3.33409C15.5815 3.33409 15.8995 3.45955 16.1339 3.68285C16.3683 3.90616 16.5 4.20903 16.5 4.52484C16.5 4.84064 16.3683 5.14352 16.1339 5.36682C15.8995 5.59013 15.5815 5.71559 15.25 5.71559C14.9185 5.71559 14.6005 5.59013 14.3661 5.36682C14.1317 5.14352 14 4.84064 14 4.52484C14 4.20903 14.1317 3.90616 14.3661 3.68285C14.6005 3.45955 14.9185 3.33409 15.25 3.33409ZM10 4.76299C11.3261 4.76299 12.5979 5.2648 13.5355 6.15803C14.4732 7.05127 15 8.26275 15 9.52598C15 10.7892 14.4732 12.0007 13.5355 12.8939C12.5979 13.7872 11.3261 14.289 10 14.289C8.67392 14.289 7.40215 13.7872 6.46447 12.8939C5.52678 12.0007 5 10.7892 5 9.52598C5 8.26275 5.52678 7.05127 6.46447 6.15803C7.40215 5.2648 8.67392 4.76299 10 4.76299ZM10 6.66818C9.20435 6.66818 8.44129 6.96927 7.87868 7.50521C7.31607 8.04115 7 8.76804 7 9.52598C7 10.2839 7.31607 11.0108 7.87868 11.5467C8.44129 12.0827 9.20435 12.3838 10 12.3838C10.7956 12.3838 11.5587 12.0827 12.1213 11.5467C12.6839 11.0108 13 10.2839 13 9.52598C13 8.76804 12.6839 8.04115 12.1213 7.50521C11.5587 6.96927 10.7956 6.66818 10 6.66818Z" fill="white"/>
</svg>
