<svg width="79" height="85" viewBox="0 0 79 85" fill="none" xmlns="http://www.w3.org/2000/svg">
<path d="M39.2306 6.83036C46.4767 6.83036 53.426 9.94874 58.5498 15.4995C63.6735 21.0502 66.552 28.5786 66.552 36.4286C66.552 48.9357 58.4397 62.5661 42.4251 77.4654C41.5346 78.2941 40.3993 78.7492 39.2254 78.7481C38.0514 78.747 36.9168 78.2897 36.0277 77.4593L34.9685 76.4636C19.6629 61.9529 11.9092 48.6564 11.9092 36.4286C11.9092 28.5786 14.7877 21.0502 19.9114 15.4995C25.0352 9.94874 31.9845 6.83036 39.2306 6.83036ZM39.2306 11.3839C33.0993 11.3839 27.2191 14.0226 22.8836 18.7193C18.5481 23.4161 16.1125 29.7863 16.1125 36.4286C16.1125 47.0596 23.2525 59.3087 37.7286 73.0302L38.7739 74.0107C38.9009 74.1291 39.063 74.1942 39.2306 74.1942C39.3982 74.1942 39.5603 74.1291 39.6874 74.0107C54.8641 59.8886 62.3487 47.3116 62.3487 36.4286C62.3487 33.1397 61.7508 29.883 60.589 26.8444C59.4272 23.8058 57.7243 21.0449 55.5776 18.7193C53.4309 16.3937 50.8824 14.549 48.0775 13.2903C45.2727 12.0317 42.2665 11.3839 39.2306 11.3839ZM39.2306 25.0446C42.0176 25.0446 44.6904 26.244 46.6611 28.3789C48.6317 30.5138 49.7389 33.4094 49.7389 36.4286C49.7389 39.4478 48.6317 42.3433 46.6611 44.4782C44.6904 46.6131 42.0176 47.8125 39.2306 47.8125C36.4437 47.8125 33.7708 46.6131 31.8002 44.4782C29.8295 42.3433 28.7224 39.4478 28.7224 36.4286C28.7224 33.4094 29.8295 30.5138 31.8002 28.3789C33.7708 26.244 36.4437 25.0446 39.2306 25.0446ZM39.2306 29.5982C37.5584 29.5982 35.9547 30.3178 34.7723 31.5988C33.5899 32.8797 32.9257 34.6171 32.9257 36.4286C32.9257 38.2401 33.5899 39.9774 34.7723 41.2584C35.9547 42.5393 37.5584 43.2589 39.2306 43.2589C40.9028 43.2589 42.5065 42.5393 43.6889 41.2584C44.8713 39.9774 45.5356 38.2401 45.5356 36.4286C45.5356 34.6171 44.8713 32.8797 43.6889 31.5988C42.5065 30.3178 40.9028 29.5982 39.2306 29.5982Z" fill="#58B310"/>
</svg>
