<svg width="85" height="85" viewBox="0 0 85 85" fill="none" xmlns="http://www.w3.org/2000/svg">
<path d="M42.4999 74.2404C35.3859 72.1272 29.4748 67.817 24.7668 61.3098C20.0611 54.8002 17.7083 47.4678 17.7083 39.3125V20.1592L42.4999 10.8977L67.2916 20.1592V39.3125C67.2916 39.5628 67.288 39.8131 67.281 40.0633C67.2739 40.3112 67.2633 40.5603 67.2491 40.8106C66.8099 40.7398 66.3767 40.6855 65.9493 40.6477C65.5243 40.6123 65.0863 40.5946 64.6353 40.5946C64.4748 40.5946 64.3213 40.6005 64.1749 40.6123C64.0262 40.6265 63.8703 40.6477 63.7074 40.676L63.7428 40.0102C63.7476 39.7953 63.7499 39.5628 63.7499 39.3125V22.5781L42.4999 14.6802L21.2499 22.5781V39.3125C21.2499 46.4549 23.2569 52.9479 27.2708 58.7917C31.2846 64.6354 36.361 68.5312 42.4999 70.4792C43.2696 70.2431 44.0217 69.9562 44.756 69.6185C45.4903 69.2785 46.2139 68.9067 46.927 68.5029V72.5369C46.2258 72.9147 45.5056 73.2452 44.7666 73.5285C44.0276 73.8119 43.272 74.0515 42.4999 74.2404ZM57.977 74.375C57.1506 74.375 56.4187 74.0562 55.7812 73.4187C55.1437 72.786 54.8249 72.0564 54.8249 71.23V61.3133C54.8249 60.4869 55.1437 59.7786 55.7812 59.1883C56.4187 58.5981 57.1506 58.3029 57.977 58.3029H58.3666V54.7612C58.3666 52.9928 58.9698 51.5053 60.1764 50.2987C61.3805 49.0946 62.8669 48.4925 64.6353 48.4925C66.4038 48.4925 67.8901 49.0946 69.0943 50.2987C70.2985 51.5053 70.9005 52.9928 70.9005 54.7612V58.3029H71.2972C72.1425 58.3029 72.8662 58.5981 73.4683 59.1883C74.0727 59.7786 74.3749 60.4869 74.3749 61.3133V71.23C74.3749 72.0564 74.0727 72.7872 73.4683 73.4223C72.8662 74.0574 72.1425 74.375 71.2972 74.375H57.977ZM61.0937 58.3029H68.177V54.7612C68.177 53.7578 67.837 52.916 67.157 52.236C66.477 51.556 65.6364 51.2172 64.6353 51.2196C63.6319 51.2196 62.7913 51.5584 62.1137 52.236C61.436 52.9137 61.096 53.7554 61.0937 54.7612V58.3029Z" fill="#58B310"/>
</svg>
