<svg width="85" height="85" viewBox="0 0 85 85" fill="none" xmlns="http://www.w3.org/2000/svg">
<path d="M71.7188 23.9062H60.0711C60.2006 23.7967 60.3334 23.6904 60.4596 23.5742C61.468 22.6783 62.2807 21.584 62.8469 20.3597C63.413 19.1353 63.7205 17.8074 63.75 16.4588C63.7936 14.9835 63.5352 13.5148 62.9907 12.143C62.4462 10.7712 61.6271 9.5251 60.5836 8.48129C59.5401 7.43748 58.2943 6.61796 56.9226 6.07305C55.5509 5.52813 54.0823 5.26932 52.607 5.3125C51.2579 5.34156 49.9293 5.64879 48.7044 6.21498C47.4794 6.78117 46.3846 7.59411 45.4883 8.60293C44.2481 10.0403 43.2398 11.6624 42.5 13.4107C41.7602 11.6624 40.7519 10.0403 39.5117 8.60293C38.6154 7.59411 37.5206 6.78117 36.2956 6.21498C35.0707 5.64879 33.7421 5.34156 32.393 5.3125C30.9177 5.26932 29.4491 5.52813 28.0774 6.07305C26.7057 6.61796 25.4599 7.43748 24.4164 8.48129C23.3729 9.5251 22.5538 10.7712 22.0093 12.143C21.4648 13.5148 21.2064 14.9835 21.25 16.4588C21.2795 17.8074 21.587 19.1353 22.1531 20.3597C22.7193 21.584 23.532 22.6783 24.5404 23.5742C24.6666 23.6838 24.7994 23.79 24.9289 23.9062H13.2812C11.8723 23.9062 10.521 24.466 9.52474 25.4622C8.52846 26.4585 7.96875 27.8098 7.96875 29.2187V39.8437C7.96875 41.2527 8.52846 42.604 9.52474 43.6003C10.521 44.5965 11.8723 45.1562 13.2812 45.1562V66.4062C13.2813 67.8152 13.841 69.1665 14.8372 70.1628C15.8335 71.159 17.1848 71.7187 18.5938 71.7187H66.4062C67.8152 71.7187 69.1665 71.159 70.1628 70.1628C71.159 69.1665 71.7188 67.8152 71.7188 66.4062V45.1562C73.1277 45.1562 74.479 44.5965 75.4753 43.6003C76.4715 42.604 77.0312 41.2527 77.0312 39.8437V29.2187C77.0312 27.8098 76.4715 26.4585 75.4753 25.4622C74.479 24.466 73.1277 23.9062 71.7188 23.9062ZM49.4727 12.1225C49.8932 11.658 50.4053 11.2855 50.9767 11.0284C51.5481 10.7713 52.1664 10.6351 52.793 10.6283H52.9557C53.69 10.6329 54.4161 10.784 55.0913 11.0728C55.7664 11.3616 56.3772 11.7822 56.8878 12.3101C57.3983 12.838 57.7983 13.4624 58.0645 14.1469C58.3306 14.8313 58.4574 15.562 58.4375 16.2961C58.4307 16.9226 58.2945 17.541 58.0374 18.1124C57.7803 18.6838 57.4078 19.1958 56.9434 19.6164C53.7924 22.4055 48.5629 23.3883 45.3223 23.7336C45.7207 20.2174 46.8164 15.1074 49.4727 12.1225ZM28.1928 12.242C29.2219 11.213 30.6156 10.6319 32.0709 10.625H32.2336C32.8601 10.6318 33.4785 10.768 34.0499 11.0251C34.6213 11.2822 35.1333 11.6547 35.5539 12.1191C38.3396 15.2668 39.3225 20.4863 39.6678 23.7137C36.4404 23.3816 31.2209 22.3855 28.0732 19.5998C27.6088 19.1792 27.2363 18.6672 26.9792 18.0958C26.7221 17.5244 26.5859 16.906 26.5791 16.2795C26.5585 15.5332 26.6897 14.7905 26.9649 14.0965C27.24 13.4024 27.6532 12.7715 28.1795 12.242H28.1928ZM13.2812 29.2187H39.8438V39.8437H13.2812V29.2187ZM18.5938 45.1562H39.8438V66.4062H18.5938V45.1562ZM66.4062 66.4062H45.1562V45.1562H66.4062V66.4062ZM71.7188 39.8437H45.1562V29.2187H71.7188V39.8437Z" fill="#58B310"/>
</svg>
